<svg xmlns="http://www.w3.org/2000/svg" version="1.1" xmlns:xlink="http://www.w3.org/1999/xlink" xmlns:svgjs="http://svgjs.com/svgjs" width="1440" height="560" preserveAspectRatio="none" viewBox="0 0 1440 560"><g mask="url(&quot;#SvgjsMask1000&quot;)" fill="none"><rect width="1440" height="560" x="0" y="0" fill="#1e3266"></rect><path d="M1488 560L0 560 L0 333.05Q15.21 276.26, 72 291.48Q114.13 261.62, 144 303.75Q191.74 279.49, 216 327.22Q270.72 261.94, 336 316.66Q414.64 275.3, 456 353.94Q484.59 310.53, 528 339.13Q603.97 295.1, 648 371.06Q698.41 301.47, 768 351.88Q798.78 262.66, 888 293.45Q954.6 240.04, 1008 306.64Q1083.71 262.36, 1128 338.07Q1200.62 290.69, 1248 363.3Q1269.15 264.45, 1368 285.6Q1436.55 234.15, 1488 302.71z" fill="#182f5d"></path><path d="M1488 560L0 560 L0 390.38Q28.14 346.52, 72 374.66Q167.13 349.79, 192 444.92Q217.49 398.41, 264 423.9Q276.41 364.31, 336 376.72Q407.63 328.35, 456 399.97Q468.4 340.37, 528 352.77Q569.41 322.19, 600 363.6Q668.05 359.65, 672 427.71Q716.45 352.16, 792 396.61Q860.02 344.63, 912 412.65Q985.28 365.93, 1032 439.21Q1037.9 373.11, 1104 379.01Q1126.21 329.22, 1176 351.42Q1220.19 323.62, 1248 367.81Q1341.35 341.15, 1368 434.5Q1405.02 351.52, 1488 388.55z" fill="#25467d"></path><path d="M1488 560L0 560 L0 493.25Q11.47 432.72, 72 444.18Q144.48 396.66, 192 469.14Q276.09 433.23, 312 517.32Q312.93 446.25, 384 447.19Q413.9 405.09, 456 434.98Q505.75 412.73, 528 462.47Q597.27 411.75, 648 481.02Q656.59 417.61, 720 426.19Q792.83 379.02, 840 451.86Q912.55 404.41, 960 476.96Q1013.82 410.78, 1080 464.6Q1138.91 451.51, 1152 510.43Q1200.16 438.59, 1272 486.75Q1289.9 432.65, 1344 450.56Q1372.61 407.16, 1416 435.77Q1468.74 416.51, 1488 469.25z" fill="#356cb1"></path><path d="M1464 560L0 560 L0 518.09Q65.78 463.88, 120 529.66Q162.21 499.87, 192 542.07Q237.94 468.01, 312 513.95Q338.45 468.41, 384 494.86Q441.08 479.94, 456 537.02Q532.74 493.76, 576 570.5Q604.76 479.26, 696 508.02Q775 467.02, 816 546.02Q869.12 479.14, 936 532.26Q975.68 451.94, 1056 491.62Q1098.55 462.17, 1128 504.72Q1196.89 501.61, 1200 570.5Q1234.44 484.94, 1320 519.38Q1373.63 501.01, 1392 554.65Q1440.92 531.58, 1464 580.5z" fill="white"></path></g><defs><mask id="SvgjsMask1000"><rect width="1440" height="560" fill="#ffffff"></rect></mask></defs></svg>